<svg xmlns="http://www.w3.org/2000/svg" xmlns:xlink="http://www.w3.org/1999/xlink" xmlns:inkscape="http://www.inkscape.org/namespaces/inkscape" version="1.1" width="843.8898" height="597.2756" viewBox="0 0 843.8898 597.2756">
<g inkscape:groupmode="layer" inkscape:label="Layer 1">
<path transform="matrix(1,0,0,-1,1,596.2756)" d="M0 595.2756H841.8898V0H0Z" fill="#2c1a61" fill-rule="evenodd"/>
<path transform="matrix(1,0,0,-1,1,596.2756)" d="M593.6304 353.5869C593.2449 353.5869 591.8666 353.5223 589.4932 353.3947 587.1197 353.2657 584.3293 352.7206 581.1214 351.7583 577.9148 350.7962 574.5146 349.289 570.9223 347.2367 567.3302 345.1833 563.9944 342.2333 560.9157 338.3844 557.8367 334.5355 555.3028 329.6914 553.3152 323.8549 551.3275 318.018 550.3323 310.8019 550.3323 302.2064V265.1817 265.0541 264.9251 264.7947 264.6646 264.5328 264.4013 264.2695 264.1405 264.0115 263.884 263.0546H550.3363C550.3482 260.9578 550.3785 259.3332 550.4298 258.1815 550.493 256.7704 550.8785 255.7451 551.5841 255.1025 552.2896 254.4616 553.4442 254.1087 555.0474 254.0443 556.6507 253.9797 558.9924 253.9483 562.0714 253.9483 565.1501 253.9483 567.4921 253.9797 569.094 254.0443 570.6972 254.1087 571.8529 254.4616 572.5585 255.1025 573.264 255.7451 573.6484 256.7704 573.713 258.1815 573.7643 259.3346 573.7946 260.9589 573.8051 263.0546H573.8091V263.884 264.0115 264.1405 264.2695 264.4013 264.5328 264.6646 264.7947 264.9251 265.0541 265.1817 302.2064C573.8091 305.0271 574.0656 307.9165 574.5793 310.8665 575.0912 313.8163 576.0547 316.5109 577.4658 318.9487 578.8769 321.3853 580.8645 323.4059 583.4316 325.0106 585.9969 326.6138 589.3971 327.4155 593.6304 327.4155 597.8639 327.4155 601.2638 326.6138 603.8294 325.0106 606.3951 323.4059 608.3838 321.3853 609.7949 318.9487 611.206 316.5109 612.1698 313.8163 612.6817 310.8665 613.1937 307.9165 613.4505 305.0286 613.4505 302.2064V264.1629H613.4519C613.4545 261.5238 613.4873 259.5308 613.5491 258.1815 613.6123 256.7704 613.9981 255.7451 614.7037 255.1025 615.4092 254.4616 616.5635 254.1087 618.1668 254.0443 619.7703 253.9797 622.112 253.9483 625.1907 253.9483 628.2697 253.9483 630.6114 253.9797 632.2136 254.0443 633.8169 254.1087 634.9725 254.4616 635.6781 255.1025 636.3836 255.7451 636.768 256.7704 636.8326 258.1815 636.893 259.5308 636.9259 261.5238 636.9287 264.1629V264.2695 264.4013 264.5328 264.6646 264.7947 264.9251 265.0541 265.1817 302.2064C636.9287 310.8008 635.9335 318.0195 633.9458 323.8549 631.9582 329.6928 629.4229 334.5355 626.3439 338.3844 623.2652 342.2333 619.9294 345.1833 616.3373 347.2367 612.7449 349.289 609.3462 350.7962 606.1382 351.7583 602.9317 352.7206 600.141 353.2657 597.7678 353.3947 595.3944 353.5223 594.0147 353.5869 593.6304 353.5869" fill="#ffffff"/>
<path transform="matrix(1,0,0,-1,1,596.2756)" d="M512.202 404.5527C512.547 404.7803 513.9553 405.1712 515.556 405.216L529.6646 405.6109C531.269 405.6557 532.4289 405.1896 533.1291 404.5527 533.8307 403.9155 534.2837 402.8848 534.2837 401.4737V388.7725C534.2837 387.3611 533.8346 386.3344 533.1291 385.6935 532.4236 385.0523 531.2585 384.6351 529.6646 384.6351H510.6027C507.8962 384.6351 507.0039 386.7571 507.562 389.4976L509.9868 401.4065C510.2921 402.9046 511.3057 403.9642 512.202 404.5527" fill="#7c6eb0"/>
<path transform="matrix(1,0,0,-1,1,596.2756)" d="M534.2822 258.1815C534.2837 256.7798 533.8332 255.7437 533.1277 255.1025 532.4221 254.4616 531.2665 254.1087 529.6632 254.0443 528.0613 253.9797 525.7193 253.9483 522.6406 253.9483 519.5616 253.9483 517.2199 253.9797 515.6167 254.0443 514.0134 254.1087 512.8588 254.4616 512.1533 255.1025 511.4477 255.7437 510.999 256.769 510.999 258.1815L510.9727 291.2715 510.9698 294.5954 532.3986 372.2749 532.5171 372.2102C532.7144 372.0983 532.8896 371.9721 533.0424 371.8324 533.7465 371.1929 534.1952 370.1608 534.1966 368.7537Z" fill="#ffffff"/>
<path transform="matrix(1,0,0,-1,1,596.2756)" d="M243.8555 252.0238C243.47 252.0238 242.0918 252.0882 239.7183 252.216 237.3449 252.345 234.5545 252.8898 231.3465 253.8522 228.1399 254.8142 224.7398 256.3217 221.1474 258.3737 217.5554 260.4271 214.2196 263.3771 211.1409 267.226 208.0619 271.0749 205.528 275.919 203.5403 281.7558 201.5527 287.5924 200.5574 294.8085 200.5574 303.4043V340.4288 340.5563 340.6853 340.8157 340.9461 341.0776 341.2094 341.3409 341.4699 341.5989 341.7267 342.5559H200.5614C200.5733 344.6529 200.6036 346.2772 200.6549 347.4289 200.7181 348.84 201.1037 349.8656 201.8092 350.5079 202.5147 351.1488 203.6693 351.5017 205.2726 351.5661 206.8758 351.6307 209.2175 351.6622 212.2965 351.6622 215.3752 351.6622 217.7172 351.6307 219.3191 351.5661 220.9224 351.5017 222.078 351.1488 222.7836 350.5079 223.4891 349.8656 223.8735 348.84 223.9381 347.4289 223.9894 346.2758 224.0198 344.6515 224.0303 342.5559H224.0342V341.7267 341.5989 341.4699 341.3409 341.2094 341.0776 340.9461 340.8157 340.6853 340.5563 340.4288 303.4043C224.0342 300.5833 224.2908 297.6939 224.8044 294.7439 225.3163 291.7942 226.2798 289.0996 227.6909 286.6618 229.102 284.2251 231.0897 282.2046 233.6567 280.6002 236.2221 278.9966 239.6222 278.195 243.8555 278.195 248.089 278.195 251.4889 278.9966 254.0546 280.6002 256.6202 282.2046 258.609 284.2251 260.0201 286.6618 261.4311 289.0996 262.3949 291.7942 262.9069 294.7439 263.4188 297.6939 263.6756 300.5819 263.6756 303.4043V341.4475H263.677C263.6796 344.0869 263.7125 346.0796 263.7743 347.4289 263.8375 348.84 264.2233 349.8656 264.9288 350.5079 265.6344 351.1488 266.7886 351.5017 268.3919 351.5661 269.9955 351.6307 272.3372 351.6622 275.4159 351.6622 278.4949 351.6622 280.8366 351.6307 282.4387 351.5661 284.042 351.5017 285.1977 351.1488 285.9032 350.5079 286.6088 349.8656 286.9931 348.84 287.0578 347.4289 287.1181 346.0796 287.151 344.0869 287.1539 341.4475V341.3409 341.2094 341.0776 340.9461 340.8157 340.6853 340.5563 340.4288 303.4043C287.1539 294.81 286.1586 287.591 284.171 281.7558 282.1833 275.9179 279.648 271.0749 276.569 267.226 273.4903 263.3771 270.1545 260.4271 266.5624 258.3737 262.9701 256.3217 259.5713 254.8142 256.3634 253.8522 253.1568 252.8898 250.3661 252.345 247.9929 252.216 245.6195 252.0882 244.2399 252.0238 243.8555 252.0238" fill="#ffffff"/>
<path transform="matrix(1,0,0,-1,1,596.2756)" d="M128.5869 343.2339C151.7213 363.9793 188.4274 347.4502 188.4328 317.452L188.4419 258.1815C188.4419 257.8762 188.3985 257.5865 188.3551 257.3155 188.1958 256.3438 187.8389 255.6028 187.2876 255.1025 186.5832 254.4616 185.4249 254.1087 183.8228 254.0443 182.2209 253.9811 179.591 253.9483 176.512 253.9483 173.433 253.9483 171.0913 253.9797 169.488 254.0443 167.8847 254.1087 166.7302 254.4616 166.0246 255.1025 165.3191 255.7437 164.8675 256.769 164.8704 258.1815L164.956 307.061C164.9611 310.14 165.0532 313.0543 164.3794 315.6236 159.493 334.2433 129.0266 330.3575 128.9713 310.6086L128.8225 258.1815C128.8225 257.9828 128.7961 257.7881 128.7751 257.6038 128.6422 256.4887 128.2737 255.6516 127.6682 255.1025 126.9638 254.4616 125.8055 254.1087 124.2034 254.0443 122.6015 253.9811 119.9279 253.9483 116.8492 253.9483 113.7702 253.9483 111.4285 253.9797 109.8252 254.0443 108.222 254.1087 107.0674 254.4616 106.3619 255.1025 105.6563 255.7437 105.2705 256.7704 105.2076 258.1815 105.1903 258.55 105.1758 258.9673 105.1639 259.4333 105.0454 259.4333 105.1982 369.5553 105.2076 379.6095 105.2087 381.0217 105.6563 382.0459 106.3619 382.6882 107.0674 383.3294 108.222 383.682 109.8252 383.7467 111.4285 383.811 113.7702 383.8428 116.8492 383.8428 119.9279 383.8428 122.2699 383.811 123.8717 383.7467 125.475 383.682 126.6307 383.3294 127.3363 382.6882 128.0418 382.0459 128.4868 381.0206 128.4908 379.6095Z" fill="#ffffff"/>
<path transform="matrix(1,0,0,-1,1,596.2756)" d="M301.9164 313.507 382.318 313.4109C383.7266 313.4109 384.7558 312.9622 385.397 312.2566 386.0379 311.5511 386.3948 310.39 386.4552 308.7918 386.5144 307.194 386.5513 304.8483 386.5513 301.7693 386.5513 298.6903 386.5198 296.3486 386.4552 294.7453 386.3908 293.142 386.0379 291.9875 385.397 291.282 384.7558 290.5764 383.724 290.1291 382.318 290.1277L327.6099 290.0302C328.7392 281.2082 334.2694 275.4901 345.4963 275.5006L383.2316 275.4045C384.6441 275.4017 385.6694 274.9555 386.3106 274.25 386.9515 273.5444 387.3044 272.3888 387.3688 270.7855 387.4334 269.1833 387.4649 266.8416 387.4649 263.7629 387.4649 260.6839 387.4334 258.3422 387.3688 256.739 387.3044 255.1357 386.9515 253.9811 386.3106 253.2756 385.6694 252.57 384.6427 252.1239 383.2316 252.121L345.3279 252.0238C319.9266 253.6679 307.1514 267.0721 303.1302 288.6231 301.532 297.1845 301.9164 304.8786 301.9164 313.507" fill="#ffffff"/>
<path transform="matrix(1,0,0,-1,1,596.2756)" d="M301.9164 351.5136H344.355 376.1393 377.2633C379.8488 351.5097 381.8112 351.4754 383.1381 351.4175 384.548 351.3569 385.5759 350.9685 386.2171 350.263 386.858 349.5574 387.2134 348.3992 387.2755 346.7985 387.3373 345.1992 387.3716 342.8546 387.3716 339.7759 387.3716 336.6969 387.3399 334.3552 387.2755 332.752 387.2109 331.1487 386.858 329.9941 386.2171 329.2886 385.5759 328.5831 384.5466 328.1947 383.1381 328.134 381.81 328.0762 379.8488 328.0408 377.2633 328.0368H376.1393 307.3635 301.9164Z" fill="#ffffff"/>
<path transform="matrix(1,0,0,-1,1,596.2756)" d="M651.2227 313.507 731.6243 313.4109C733.0329 313.4109 734.0621 312.9622 734.7033 312.2566 735.3442 311.5511 735.7011 310.39 735.7615 308.7918 735.8207 307.194 735.8576 304.8483 735.8576 301.7693 735.8576 298.6903 735.8261 296.3486 735.7615 294.7453 735.6971 293.142 735.3442 291.9875 734.7033 291.282 734.0621 290.5764 733.0303 290.1291 731.6243 290.1277L676.9162 290.0302C678.0455 281.2082 683.5757 275.4901 694.8026 275.5006L732.5379 275.4045C733.9504 275.4017 734.9757 274.9555 735.6169 274.25 736.2578 273.5444 736.6107 272.3888 736.6751 270.7855 736.7397 269.1833 736.7712 266.8416 736.7712 263.7629 736.7712 260.6839 736.7397 258.3422 736.6751 256.739 736.6107 255.1357 736.2578 253.9811 735.6169 253.2756 734.9757 252.57 733.949 252.1239 732.5379 252.121L694.6342 252.0238C669.2326 253.6679 656.4577 267.0721 652.4362 288.6231 650.8383 297.1845 651.2227 304.8786 651.2227 313.507" fill="#ffffff"/>
<path transform="matrix(1,0,0,-1,1,596.2756)" d="M651.2227 351.5136H693.6613 725.4454 726.5696C729.1548 351.5097 731.1175 351.4754 732.4444 351.4175 733.8543 351.3569 734.8822 350.9685 735.5234 350.263 736.1643 349.5574 736.5197 348.3992 736.5815 346.7985 736.6436 345.1992 736.6776 342.8546 736.6776 339.7759 736.6776 336.6969 736.6462 334.3552 736.5815 332.752 736.5172 331.1487 736.1643 329.9941 735.5234 329.2886 734.8822 328.5831 733.8529 328.1947 732.4444 328.134 731.1163 328.0762 729.1548 328.0408 726.5696 328.0368H725.4454 656.6698 651.2227Z" fill="#ffffff"/>
<path transform="matrix(1,0,0,-1,1,596.2756)" d="M436.218 254.6444H433.8485 433.7169 420.4378L400.6111 337.8606C400.286 339.2124 400.5031 340.3023 401.0377 341.0736 401.5706 341.8438 402.5475 342.8586 404.1283 342.8586L418.3237 342.8546C419.9034 342.8546 421.071 343.0641 421.8883 342.606 422.7072 342.1466 423.3994 341.2633 423.68 339.9049L435.0334 284.7966 448.922 349.1651C449.2154 350.5249 449.8934 351.4056 450.7135 351.8663 451.5321 352.3258 452.6972 352.1151 454.278 352.1151H459.6066 459.8844 465.213C466.7939 352.1151 467.96 352.3258 468.7775 351.8663 469.5976 351.4071 470.1991 350.5054 470.569 349.1651L484.4577 298.8865 502.3638 369.9068C502.7034 371.2533 503.3378 372.1499 504.1553 372.6079 504.9714 373.0646 506.1404 372.8565 507.7199 372.8565L521.9152 372.8605C523.4961 372.8605 524.4729 371.8443 525.0061 371.0755 525.5391 370.3042 525.7576 369.2143 525.4325 367.8625L499.0533 268.7346H485.7741 485.6423 483.2731 483.1413 469.8621L459.7461 296.5473 449.6289 254.6444H436.3498Z" fill="#7c6eb0"/>
</g>
</svg>
